<svg width="59" height="59" viewBox="0 0 59 59" fill="none" xmlns="http://www.w3.org/2000/svg">
<path d="M0.831863 33.2499L32.9178 1.16392L33.2506 10.1093L5.47092 37.889L0.831863 33.2499Z" fill="#FFD400" stroke="#FDBF00"/>
<path d="M7.51448 39.9326L33.3197 14.1273L33.3011 20.751L10.817 43.2351L7.51448 39.9326Z" stroke="#FDBF00"/>
<path d="M12.8607 45.2787L33.1521 24.9873L33.2596 30.1484L15.4949 47.913L12.8607 45.2787Z" fill="#FFD400" stroke="#FDBF00"/>
<path d="M17.5386 49.9567L32.3297 35.1656L32.5468 38.8805L19.5046 51.9227L17.5386 49.9567Z" stroke="#FDBF00"/>
<path d="M21.5483 53.9665L32.1907 43.3241L32.3507 45.7595L22.846 55.2642L21.5483 53.9665Z" stroke="#FDBF00"/>
<path d="M24.856 57.524L32.2223 50.1578L32.3135 51.5465L25.596 58.264L24.856 57.524Z" stroke="#FDBF00"/>
</svg>
