<svg width="1904" height="19" viewBox="0 0 1904 19" fill="none" xmlns="http://www.w3.org/2000/svg">
<path d="M1.098 15V3.732H1.26L10.638 11.076H10.674V4.038H12.834V15.306H12.672L3.294 7.998H3.258V15H1.098ZM15.0199 15V4.038H25.8199V6H17.5579V8.646H24.8839V10.41H17.5579V13.056H25.8199V15H15.0199ZM26.6008 4.038H29.1388L31.9828 10.428H32.0188L35.5648 3.894H35.6188L39.1468 10.428H39.1828L42.0268 4.038H44.5648L39.2908 15.306H39.2548L35.6188 8.448H35.5648L31.9108 15.306H31.8748L26.6008 4.038ZM51.4145 9.528C51.4145 7.824 52.0145 6.462 53.2145 5.442C54.4145 4.41 56.0825 3.894 58.2185 3.894C59.3345 3.894 60.3845 3.972 61.3685 4.128C62.3645 4.272 63.1085 4.428 63.6005 4.596V6.594C62.9285 6.366 62.1065 6.186 61.1345 6.054C60.1745 5.922 59.3585 5.856 58.6865 5.856C57.1985 5.856 56.0345 6.174 55.1945 6.81C54.3665 7.446 53.9525 8.352 53.9525 9.528C53.9525 10.62 54.3605 11.502 55.1765 12.174C55.9925 12.834 57.0965 13.164 58.4885 13.164C59.2085 13.164 59.8265 13.11 60.3425 13.002C60.8705 12.894 61.4465 12.684 62.0705 12.372V10.554H58.4885V8.862H64.1045V13.434C63.0725 14.106 62.1725 14.562 61.4045 14.802C60.6485 15.042 59.6765 15.162 58.4885 15.162C56.3405 15.162 54.6245 14.646 53.3405 13.614C52.0565 12.57 51.4145 11.208 51.4145 9.528ZM65.8558 15V4.038H76.6558V6H68.3938V8.646H75.7198V10.41H68.3938V13.056H76.6558V15H65.8558ZM78.3187 15V3.732H78.4807L87.8587 11.076H87.8947V4.038H90.0547V15.306H89.8927L80.5147 7.998H80.4787V15H78.3187ZM92.2406 15V4.038H103.041V6H94.7786V8.646H102.105V10.41H94.7786V13.056H103.041V15H92.2406ZM107.205 9.456C107.361 9.456 108.087 9.462 109.383 9.474C110.691 9.486 111.669 9.492 112.317 9.492C113.013 9.492 113.595 9.318 114.063 8.97C114.531 8.61 114.765 8.202 114.765 7.746C114.765 7.266 114.507 6.846 113.991 6.486C113.487 6.114 112.833 5.928 112.029 5.928C111.345 5.928 110.457 5.946 109.365 5.982C108.273 6.006 107.553 6.018 107.205 6.018V9.456ZM104.703 15V4.038C105.603 4.038 106.785 4.026 108.249 4.002C109.725 3.966 110.943 3.948 111.903 3.948C113.451 3.948 114.741 4.302 115.773 5.01C116.817 5.718 117.339 6.594 117.339 7.638C117.339 8.634 116.859 9.486 115.899 10.194C115.239 10.674 114.489 10.986 113.649 11.13L117.249 15H113.901L111.039 11.238H107.205V15H104.703ZM118.147 15L125.041 3.732H125.113L132.007 15H129.469L128.299 13.092H121.801L120.631 15H118.147ZM122.863 11.364H127.237L125.059 7.782L122.863 11.364ZM129.945 5.964V4.038H141.213V5.964H136.893V15H134.265V5.964H129.945ZM142.619 15V4.038H145.157V15H142.619ZM148.77 13.614C147.534 12.57 146.916 11.208 146.916 9.528C146.916 7.848 147.534 6.492 148.77 5.46C150.006 4.416 151.632 3.894 153.648 3.894C155.664 3.894 157.29 4.416 158.526 5.46C159.762 6.492 160.38 7.848 160.38 9.528C160.38 11.208 159.762 12.57 158.526 13.614C157.29 14.646 155.664 15.162 153.648 15.162C151.632 15.162 150.006 14.646 148.77 13.614ZM150.678 6.882C149.934 7.542 149.562 8.424 149.562 9.528C149.562 10.62 149.934 11.502 150.678 12.174C151.434 12.834 152.424 13.164 153.648 13.164C154.872 13.164 155.862 12.834 156.618 12.174C157.374 11.502 157.752 10.62 157.752 9.528C157.752 8.424 157.374 7.542 156.618 6.882C155.862 6.21 154.872 5.874 153.648 5.874C152.424 5.874 151.434 6.21 150.678 6.882ZM162.166 15V3.732H162.328L171.706 11.076H171.742V4.038H173.902V15.306H173.74L164.362 7.998H164.326V15H162.166Z" fill="white"/>
<path d="M200.098 15V3.732H200.26L209.638 11.076H209.674V4.038H211.834V15.306H211.672L202.294 7.998H202.258V15H200.098ZM214.02 15V4.038H224.82V6H216.558V8.646H223.884V10.41H216.558V13.056H224.82V15H214.02ZM225.601 4.038H228.139L230.983 10.428H231.019L234.565 3.894H234.619L238.147 10.428H238.183L241.027 4.038H243.565L238.291 15.306H238.255L234.619 8.448H234.565L230.911 15.306H230.875L225.601 4.038ZM250.414 9.528C250.414 7.824 251.014 6.462 252.214 5.442C253.414 4.41 255.082 3.894 257.218 3.894C258.334 3.894 259.384 3.972 260.368 4.128C261.364 4.272 262.108 4.428 262.6 4.596V6.594C261.928 6.366 261.106 6.186 260.134 6.054C259.174 5.922 258.358 5.856 257.686 5.856C256.198 5.856 255.034 6.174 254.194 6.81C253.366 7.446 252.952 8.352 252.952 9.528C252.952 10.62 253.36 11.502 254.176 12.174C254.992 12.834 256.096 13.164 257.488 13.164C258.208 13.164 258.826 13.11 259.342 13.002C259.87 12.894 260.446 12.684 261.07 12.372V10.554H257.488V8.862H263.104V13.434C262.072 14.106 261.172 14.562 260.404 14.802C259.648 15.042 258.676 15.162 257.488 15.162C255.34 15.162 253.624 14.646 252.34 13.614C251.056 12.57 250.414 11.208 250.414 9.528ZM264.856 15V4.038H275.656V6H267.394V8.646H274.72V10.41H267.394V13.056H275.656V15H264.856ZM277.319 15V3.732H277.481L286.859 11.076H286.895V4.038H289.055V15.306H288.893L279.515 7.998H279.479V15H277.319ZM291.241 15V4.038H302.041V6H293.779V8.646H301.105V10.41H293.779V13.056H302.041V15H291.241ZM306.205 9.456C306.361 9.456 307.087 9.462 308.383 9.474C309.691 9.486 310.669 9.492 311.317 9.492C312.013 9.492 312.595 9.318 313.063 8.97C313.531 8.61 313.765 8.202 313.765 7.746C313.765 7.266 313.507 6.846 312.991 6.486C312.487 6.114 311.833 5.928 311.029 5.928C310.345 5.928 309.457 5.946 308.365 5.982C307.273 6.006 306.553 6.018 306.205 6.018V9.456ZM303.703 15V4.038C304.603 4.038 305.785 4.026 307.249 4.002C308.725 3.966 309.943 3.948 310.903 3.948C312.451 3.948 313.741 4.302 314.773 5.01C315.817 5.718 316.339 6.594 316.339 7.638C316.339 8.634 315.859 9.486 314.899 10.194C314.239 10.674 313.489 10.986 312.649 11.13L316.249 15H312.901L310.039 11.238H306.205V15H303.703ZM317.147 15L324.041 3.732H324.113L331.007 15H328.469L327.299 13.092H320.801L319.631 15H317.147ZM321.863 11.364H326.237L324.059 7.782L321.863 11.364ZM328.945 5.964V4.038H340.213V5.964H335.893V15H333.265V5.964H328.945ZM341.619 15V4.038H344.157V15H341.619ZM347.77 13.614C346.534 12.57 345.916 11.208 345.916 9.528C345.916 7.848 346.534 6.492 347.77 5.46C349.006 4.416 350.632 3.894 352.648 3.894C354.664 3.894 356.29 4.416 357.526 5.46C358.762 6.492 359.38 7.848 359.38 9.528C359.38 11.208 358.762 12.57 357.526 13.614C356.29 14.646 354.664 15.162 352.648 15.162C350.632 15.162 349.006 14.646 347.77 13.614ZM349.678 6.882C348.934 7.542 348.562 8.424 348.562 9.528C348.562 10.62 348.934 11.502 349.678 12.174C350.434 12.834 351.424 13.164 352.648 13.164C353.872 13.164 354.862 12.834 355.618 12.174C356.374 11.502 356.752 10.62 356.752 9.528C356.752 8.424 356.374 7.542 355.618 6.882C354.862 6.21 353.872 5.874 352.648 5.874C351.424 5.874 350.434 6.21 349.678 6.882ZM361.166 15V3.732H361.328L370.706 11.076H370.742V4.038H372.902V15.306H372.74L363.362 7.998H363.326V15H361.166Z" fill="white"/>
<path d="M399.098 15V3.732H399.26L408.638 11.076H408.674V4.038H410.834V15.306H410.672L401.294 7.998H401.258V15H399.098ZM413.02 15V4.038H423.82V6H415.558V8.646H422.884V10.41H415.558V13.056H423.82V15H413.02ZM424.601 4.038H427.139L429.983 10.428H430.019L433.565 3.894H433.619L437.147 10.428H437.183L440.027 4.038H442.565L437.291 15.306H437.255L433.619 8.448H433.565L429.911 15.306H429.875L424.601 4.038ZM449.414 9.528C449.414 7.824 450.014 6.462 451.214 5.442C452.414 4.41 454.082 3.894 456.218 3.894C457.334 3.894 458.384 3.972 459.368 4.128C460.364 4.272 461.108 4.428 461.6 4.596V6.594C460.928 6.366 460.106 6.186 459.134 6.054C458.174 5.922 457.358 5.856 456.686 5.856C455.198 5.856 454.034 6.174 453.194 6.81C452.366 7.446 451.952 8.352 451.952 9.528C451.952 10.62 452.36 11.502 453.176 12.174C453.992 12.834 455.096 13.164 456.488 13.164C457.208 13.164 457.826 13.11 458.342 13.002C458.87 12.894 459.446 12.684 460.07 12.372V10.554H456.488V8.862H462.104V13.434C461.072 14.106 460.172 14.562 459.404 14.802C458.648 15.042 457.676 15.162 456.488 15.162C454.34 15.162 452.624 14.646 451.34 13.614C450.056 12.57 449.414 11.208 449.414 9.528ZM463.856 15V4.038H474.656V6H466.394V8.646H473.72V10.41H466.394V13.056H474.656V15H463.856ZM476.319 15V3.732H476.481L485.859 11.076H485.895V4.038H488.055V15.306H487.893L478.515 7.998H478.479V15H476.319ZM490.241 15V4.038H501.041V6H492.779V8.646H500.105V10.41H492.779V13.056H501.041V15H490.241ZM505.205 9.456C505.361 9.456 506.087 9.462 507.383 9.474C508.691 9.486 509.669 9.492 510.317 9.492C511.013 9.492 511.595 9.318 512.063 8.97C512.531 8.61 512.765 8.202 512.765 7.746C512.765 7.266 512.507 6.846 511.991 6.486C511.487 6.114 510.833 5.928 510.029 5.928C509.345 5.928 508.457 5.946 507.365 5.982C506.273 6.006 505.553 6.018 505.205 6.018V9.456ZM502.703 15V4.038C503.603 4.038 504.785 4.026 506.249 4.002C507.725 3.966 508.943 3.948 509.903 3.948C511.451 3.948 512.741 4.302 513.773 5.01C514.817 5.718 515.339 6.594 515.339 7.638C515.339 8.634 514.859 9.486 513.899 10.194C513.239 10.674 512.489 10.986 511.649 11.13L515.249 15H511.901L509.039 11.238H505.205V15H502.703ZM516.147 15L523.041 3.732H523.113L530.007 15H527.469L526.299 13.092H519.801L518.631 15H516.147ZM520.863 11.364H525.237L523.059 7.782L520.863 11.364ZM527.945 5.964V4.038H539.213V5.964H534.893V15H532.265V5.964H527.945ZM540.619 15V4.038H543.157V15H540.619ZM546.77 13.614C545.534 12.57 544.916 11.208 544.916 9.528C544.916 7.848 545.534 6.492 546.77 5.46C548.006 4.416 549.632 3.894 551.648 3.894C553.664 3.894 555.29 4.416 556.526 5.46C557.762 6.492 558.38 7.848 558.38 9.528C558.38 11.208 557.762 12.57 556.526 13.614C555.29 14.646 553.664 15.162 551.648 15.162C549.632 15.162 548.006 14.646 546.77 13.614ZM548.678 6.882C547.934 7.542 547.562 8.424 547.562 9.528C547.562 10.62 547.934 11.502 548.678 12.174C549.434 12.834 550.424 13.164 551.648 13.164C552.872 13.164 553.862 12.834 554.618 12.174C555.374 11.502 555.752 10.62 555.752 9.528C555.752 8.424 555.374 7.542 554.618 6.882C553.862 6.21 552.872 5.874 551.648 5.874C550.424 5.874 549.434 6.21 548.678 6.882ZM560.166 15V3.732H560.328L569.706 11.076H569.742V4.038H571.902V15.306H571.74L562.362 7.998H562.326V15H560.166Z" fill="white"/>
<path d="M598.098 15V3.732H598.26L607.638 11.076H607.674V4.038H609.834V15.306H609.672L600.294 7.998H600.258V15H598.098ZM612.02 15V4.038H622.82V6H614.558V8.646H621.884V10.41H614.558V13.056H622.82V15H612.02ZM623.601 4.038H626.139L628.983 10.428H629.019L632.565 3.894H632.619L636.147 10.428H636.183L639.027 4.038H641.565L636.291 15.306H636.255L632.619 8.448H632.565L628.911 15.306H628.875L623.601 4.038ZM648.414 9.528C648.414 7.824 649.014 6.462 650.214 5.442C651.414 4.41 653.082 3.894 655.218 3.894C656.334 3.894 657.384 3.972 658.368 4.128C659.364 4.272 660.108 4.428 660.6 4.596V6.594C659.928 6.366 659.106 6.186 658.134 6.054C657.174 5.922 656.358 5.856 655.686 5.856C654.198 5.856 653.034 6.174 652.194 6.81C651.366 7.446 650.952 8.352 650.952 9.528C650.952 10.62 651.36 11.502 652.176 12.174C652.992 12.834 654.096 13.164 655.488 13.164C656.208 13.164 656.826 13.11 657.342 13.002C657.87 12.894 658.446 12.684 659.07 12.372V10.554H655.488V8.862H661.104V13.434C660.072 14.106 659.172 14.562 658.404 14.802C657.648 15.042 656.676 15.162 655.488 15.162C653.34 15.162 651.624 14.646 650.34 13.614C649.056 12.57 648.414 11.208 648.414 9.528ZM662.856 15V4.038H673.656V6H665.394V8.646H672.72V10.41H665.394V13.056H673.656V15H662.856ZM675.319 15V3.732H675.481L684.859 11.076H684.895V4.038H687.055V15.306H686.893L677.515 7.998H677.479V15H675.319ZM689.241 15V4.038H700.041V6H691.779V8.646H699.105V10.41H691.779V13.056H700.041V15H689.241ZM704.205 9.456C704.361 9.456 705.087 9.462 706.383 9.474C707.691 9.486 708.669 9.492 709.317 9.492C710.013 9.492 710.595 9.318 711.063 8.97C711.531 8.61 711.765 8.202 711.765 7.746C711.765 7.266 711.507 6.846 710.991 6.486C710.487 6.114 709.833 5.928 709.029 5.928C708.345 5.928 707.457 5.946 706.365 5.982C705.273 6.006 704.553 6.018 704.205 6.018V9.456ZM701.703 15V4.038C702.603 4.038 703.785 4.026 705.249 4.002C706.725 3.966 707.943 3.948 708.903 3.948C710.451 3.948 711.741 4.302 712.773 5.01C713.817 5.718 714.339 6.594 714.339 7.638C714.339 8.634 713.859 9.486 712.899 10.194C712.239 10.674 711.489 10.986 710.649 11.13L714.249 15H710.901L708.039 11.238H704.205V15H701.703ZM715.147 15L722.041 3.732H722.113L729.007 15H726.469L725.299 13.092H718.801L717.631 15H715.147ZM719.863 11.364H724.237L722.059 7.782L719.863 11.364ZM726.945 5.964V4.038H738.213V5.964H733.893V15H731.265V5.964H726.945ZM739.619 15V4.038H742.157V15H739.619ZM745.77 13.614C744.534 12.57 743.916 11.208 743.916 9.528C743.916 7.848 744.534 6.492 745.77 5.46C747.006 4.416 748.632 3.894 750.648 3.894C752.664 3.894 754.29 4.416 755.526 5.46C756.762 6.492 757.38 7.848 757.38 9.528C757.38 11.208 756.762 12.57 755.526 13.614C754.29 14.646 752.664 15.162 750.648 15.162C748.632 15.162 747.006 14.646 745.77 13.614ZM747.678 6.882C746.934 7.542 746.562 8.424 746.562 9.528C746.562 10.62 746.934 11.502 747.678 12.174C748.434 12.834 749.424 13.164 750.648 13.164C751.872 13.164 752.862 12.834 753.618 12.174C754.374 11.502 754.752 10.62 754.752 9.528C754.752 8.424 754.374 7.542 753.618 6.882C752.862 6.21 751.872 5.874 750.648 5.874C749.424 5.874 748.434 6.21 747.678 6.882ZM759.166 15V3.732H759.328L768.706 11.076H768.742V4.038H770.902V15.306H770.74L761.362 7.998H761.326V15H759.166Z" fill="white"/>
<path d="M797.098 15V3.732H797.26L806.638 11.076H806.674V4.038H808.834V15.306H808.672L799.294 7.998H799.258V15H797.098ZM811.02 15V4.038H821.82V6H813.558V8.646H820.884V10.41H813.558V13.056H821.82V15H811.02ZM822.601 4.038H825.139L827.983 10.428H828.019L831.565 3.894H831.619L835.147 10.428H835.183L838.027 4.038H840.565L835.291 15.306H835.255L831.619 8.448H831.565L827.911 15.306H827.875L822.601 4.038ZM847.414 9.528C847.414 7.824 848.014 6.462 849.214 5.442C850.414 4.41 852.082 3.894 854.218 3.894C855.334 3.894 856.384 3.972 857.368 4.128C858.364 4.272 859.108 4.428 859.6 4.596V6.594C858.928 6.366 858.106 6.186 857.134 6.054C856.174 5.922 855.358 5.856 854.686 5.856C853.198 5.856 852.034 6.174 851.194 6.81C850.366 7.446 849.952 8.352 849.952 9.528C849.952 10.62 850.36 11.502 851.176 12.174C851.992 12.834 853.096 13.164 854.488 13.164C855.208 13.164 855.826 13.11 856.342 13.002C856.87 12.894 857.446 12.684 858.07 12.372V10.554H854.488V8.862H860.104V13.434C859.072 14.106 858.172 14.562 857.404 14.802C856.648 15.042 855.676 15.162 854.488 15.162C852.34 15.162 850.624 14.646 849.34 13.614C848.056 12.57 847.414 11.208 847.414 9.528ZM861.856 15V4.038H872.656V6H864.394V8.646H871.72V10.41H864.394V13.056H872.656V15H861.856ZM874.319 15V3.732H874.481L883.859 11.076H883.895V4.038H886.055V15.306H885.893L876.515 7.998H876.479V15H874.319ZM888.241 15V4.038H899.041V6H890.779V8.646H898.105V10.41H890.779V13.056H899.041V15H888.241ZM903.205 9.456C903.361 9.456 904.087 9.462 905.383 9.474C906.691 9.486 907.669 9.492 908.317 9.492C909.013 9.492 909.595 9.318 910.063 8.97C910.531 8.61 910.765 8.202 910.765 7.746C910.765 7.266 910.507 6.846 909.991 6.486C909.487 6.114 908.833 5.928 908.029 5.928C907.345 5.928 906.457 5.946 905.365 5.982C904.273 6.006 903.553 6.018 903.205 6.018V9.456ZM900.703 15V4.038C901.603 4.038 902.785 4.026 904.249 4.002C905.725 3.966 906.943 3.948 907.903 3.948C909.451 3.948 910.741 4.302 911.773 5.01C912.817 5.718 913.339 6.594 913.339 7.638C913.339 8.634 912.859 9.486 911.899 10.194C911.239 10.674 910.489 10.986 909.649 11.13L913.249 15H909.901L907.039 11.238H903.205V15H900.703ZM914.147 15L921.041 3.732H921.113L928.007 15H925.469L924.299 13.092H917.801L916.631 15H914.147ZM918.863 11.364H923.237L921.059 7.782L918.863 11.364ZM925.945 5.964V4.038H937.213V5.964H932.893V15H930.265V5.964H925.945ZM938.619 15V4.038H941.157V15H938.619ZM944.77 13.614C943.534 12.57 942.916 11.208 942.916 9.528C942.916 7.848 943.534 6.492 944.77 5.46C946.006 4.416 947.632 3.894 949.648 3.894C951.664 3.894 953.29 4.416 954.526 5.46C955.762 6.492 956.38 7.848 956.38 9.528C956.38 11.208 955.762 12.57 954.526 13.614C953.29 14.646 951.664 15.162 949.648 15.162C947.632 15.162 946.006 14.646 944.77 13.614ZM946.678 6.882C945.934 7.542 945.562 8.424 945.562 9.528C945.562 10.62 945.934 11.502 946.678 12.174C947.434 12.834 948.424 13.164 949.648 13.164C950.872 13.164 951.862 12.834 952.618 12.174C953.374 11.502 953.752 10.62 953.752 9.528C953.752 8.424 953.374 7.542 952.618 6.882C951.862 6.21 950.872 5.874 949.648 5.874C948.424 5.874 947.434 6.21 946.678 6.882ZM958.166 15V3.732H958.328L967.706 11.076H967.742V4.038H969.902V15.306H969.74L960.362 7.998H960.326V15H958.166Z" fill="white"/>
<path d="M996.098 15V3.732H996.26L1005.64 11.076H1005.67V4.038H1007.83V15.306H1007.67L998.294 7.998H998.258V15H996.098ZM1010.02 15V4.038H1020.82V6H1012.56V8.646H1019.88V10.41H1012.56V13.056H1020.82V15H1010.02ZM1021.6 4.038H1024.14L1026.98 10.428H1027.02L1030.56 3.894H1030.62L1034.15 10.428H1034.18L1037.03 4.038H1039.56L1034.29 15.306H1034.25L1030.62 8.448H1030.56L1026.91 15.306H1026.87L1021.6 4.038ZM1046.41 9.528C1046.41 7.824 1047.01 6.462 1048.21 5.442C1049.41 4.41 1051.08 3.894 1053.22 3.894C1054.33 3.894 1055.38 3.972 1056.37 4.128C1057.36 4.272 1058.11 4.428 1058.6 4.596V6.594C1057.93 6.366 1057.11 6.186 1056.13 6.054C1055.17 5.922 1054.36 5.856 1053.69 5.856C1052.2 5.856 1051.03 6.174 1050.19 6.81C1049.37 7.446 1048.95 8.352 1048.95 9.528C1048.95 10.62 1049.36 11.502 1050.18 12.174C1050.99 12.834 1052.1 13.164 1053.49 13.164C1054.21 13.164 1054.83 13.11 1055.34 13.002C1055.87 12.894 1056.45 12.684 1057.07 12.372V10.554H1053.49V8.862H1059.1V13.434C1058.07 14.106 1057.17 14.562 1056.4 14.802C1055.65 15.042 1054.68 15.162 1053.49 15.162C1051.34 15.162 1049.62 14.646 1048.34 13.614C1047.06 12.57 1046.41 11.208 1046.41 9.528ZM1060.86 15V4.038H1071.66V6H1063.39V8.646H1070.72V10.41H1063.39V13.056H1071.66V15H1060.86ZM1073.32 15V3.732H1073.48L1082.86 11.076H1082.89V4.038H1085.05V15.306H1084.89L1075.51 7.998H1075.48V15H1073.32ZM1087.24 15V4.038H1098.04V6H1089.78V8.646H1097.1V10.41H1089.78V13.056H1098.04V15H1087.24ZM1102.21 9.456C1102.36 9.456 1103.09 9.462 1104.38 9.474C1105.69 9.486 1106.67 9.492 1107.32 9.492C1108.01 9.492 1108.6 9.318 1109.06 8.97C1109.53 8.61 1109.77 8.202 1109.77 7.746C1109.77 7.266 1109.51 6.846 1108.99 6.486C1108.49 6.114 1107.83 5.928 1107.03 5.928C1106.35 5.928 1105.46 5.946 1104.37 5.982C1103.27 6.006 1102.55 6.018 1102.21 6.018V9.456ZM1099.7 15V4.038C1100.6 4.038 1101.79 4.026 1103.25 4.002C1104.73 3.966 1105.94 3.948 1106.9 3.948C1108.45 3.948 1109.74 4.302 1110.77 5.01C1111.82 5.718 1112.34 6.594 1112.34 7.638C1112.34 8.634 1111.86 9.486 1110.9 10.194C1110.24 10.674 1109.49 10.986 1108.65 11.13L1112.25 15H1108.9L1106.04 11.238H1102.21V15H1099.7ZM1113.15 15L1120.04 3.732H1120.11L1127.01 15H1124.47L1123.3 13.092H1116.8L1115.63 15H1113.15ZM1117.86 11.364H1122.24L1120.06 7.782L1117.86 11.364ZM1124.94 5.964V4.038H1136.21V5.964H1131.89V15H1129.26V5.964H1124.94ZM1137.62 15V4.038H1140.16V15H1137.62ZM1143.77 13.614C1142.53 12.57 1141.92 11.208 1141.92 9.528C1141.92 7.848 1142.53 6.492 1143.77 5.46C1145.01 4.416 1146.63 3.894 1148.65 3.894C1150.66 3.894 1152.29 4.416 1153.53 5.46C1154.76 6.492 1155.38 7.848 1155.38 9.528C1155.38 11.208 1154.76 12.57 1153.53 13.614C1152.29 14.646 1150.66 15.162 1148.65 15.162C1146.63 15.162 1145.01 14.646 1143.77 13.614ZM1145.68 6.882C1144.93 7.542 1144.56 8.424 1144.56 9.528C1144.56 10.62 1144.93 11.502 1145.68 12.174C1146.43 12.834 1147.42 13.164 1148.65 13.164C1149.87 13.164 1150.86 12.834 1151.62 12.174C1152.37 11.502 1152.75 10.62 1152.75 9.528C1152.75 8.424 1152.37 7.542 1151.62 6.882C1150.86 6.21 1149.87 5.874 1148.65 5.874C1147.42 5.874 1146.43 6.21 1145.68 6.882ZM1157.17 15V3.732H1157.33L1166.71 11.076H1166.74V4.038H1168.9V15.306H1168.74L1159.36 7.998H1159.33V15H1157.17Z" fill="white"/>
<path d="M1195.1 15V3.732H1195.26L1204.64 11.076H1204.67V4.038H1206.83V15.306H1206.67L1197.29 7.998H1197.26V15H1195.1ZM1209.02 15V4.038H1219.82V6H1211.56V8.646H1218.88V10.41H1211.56V13.056H1219.82V15H1209.02ZM1220.6 4.038H1223.14L1225.98 10.428H1226.02L1229.56 3.894H1229.62L1233.15 10.428H1233.18L1236.03 4.038H1238.56L1233.29 15.306H1233.25L1229.62 8.448H1229.56L1225.91 15.306H1225.87L1220.6 4.038ZM1245.41 9.528C1245.41 7.824 1246.01 6.462 1247.21 5.442C1248.41 4.41 1250.08 3.894 1252.22 3.894C1253.33 3.894 1254.38 3.972 1255.37 4.128C1256.36 4.272 1257.11 4.428 1257.6 4.596V6.594C1256.93 6.366 1256.11 6.186 1255.13 6.054C1254.17 5.922 1253.36 5.856 1252.69 5.856C1251.2 5.856 1250.03 6.174 1249.19 6.81C1248.37 7.446 1247.95 8.352 1247.95 9.528C1247.95 10.62 1248.36 11.502 1249.18 12.174C1249.99 12.834 1251.1 13.164 1252.49 13.164C1253.21 13.164 1253.83 13.11 1254.34 13.002C1254.87 12.894 1255.45 12.684 1256.07 12.372V10.554H1252.49V8.862H1258.1V13.434C1257.07 14.106 1256.17 14.562 1255.4 14.802C1254.65 15.042 1253.68 15.162 1252.49 15.162C1250.34 15.162 1248.62 14.646 1247.34 13.614C1246.06 12.57 1245.41 11.208 1245.41 9.528ZM1259.86 15V4.038H1270.66V6H1262.39V8.646H1269.72V10.41H1262.39V13.056H1270.66V15H1259.86ZM1272.32 15V3.732H1272.48L1281.86 11.076H1281.89V4.038H1284.05V15.306H1283.89L1274.51 7.998H1274.48V15H1272.32ZM1286.24 15V4.038H1297.04V6H1288.78V8.646H1296.1V10.41H1288.78V13.056H1297.04V15H1286.24ZM1301.21 9.456C1301.36 9.456 1302.09 9.462 1303.38 9.474C1304.69 9.486 1305.67 9.492 1306.32 9.492C1307.01 9.492 1307.6 9.318 1308.06 8.97C1308.53 8.61 1308.77 8.202 1308.77 7.746C1308.77 7.266 1308.51 6.846 1307.99 6.486C1307.49 6.114 1306.83 5.928 1306.03 5.928C1305.35 5.928 1304.46 5.946 1303.37 5.982C1302.27 6.006 1301.55 6.018 1301.21 6.018V9.456ZM1298.7 15V4.038C1299.6 4.038 1300.79 4.026 1302.25 4.002C1303.73 3.966 1304.94 3.948 1305.9 3.948C1307.45 3.948 1308.74 4.302 1309.77 5.01C1310.82 5.718 1311.34 6.594 1311.34 7.638C1311.34 8.634 1310.86 9.486 1309.9 10.194C1309.24 10.674 1308.49 10.986 1307.65 11.13L1311.25 15H1307.9L1305.04 11.238H1301.21V15H1298.7ZM1312.15 15L1319.04 3.732H1319.11L1326.01 15H1323.47L1322.3 13.092H1315.8L1314.63 15H1312.15ZM1316.86 11.364H1321.24L1319.06 7.782L1316.86 11.364ZM1323.94 5.964V4.038H1335.21V5.964H1330.89V15H1328.26V5.964H1323.94ZM1336.62 15V4.038H1339.16V15H1336.62ZM1342.77 13.614C1341.53 12.57 1340.92 11.208 1340.92 9.528C1340.92 7.848 1341.53 6.492 1342.77 5.46C1344.01 4.416 1345.63 3.894 1347.65 3.894C1349.66 3.894 1351.29 4.416 1352.53 5.46C1353.76 6.492 1354.38 7.848 1354.38 9.528C1354.38 11.208 1353.76 12.57 1352.53 13.614C1351.29 14.646 1349.66 15.162 1347.65 15.162C1345.63 15.162 1344.01 14.646 1342.77 13.614ZM1344.68 6.882C1343.93 7.542 1343.56 8.424 1343.56 9.528C1343.56 10.62 1343.93 11.502 1344.68 12.174C1345.43 12.834 1346.42 13.164 1347.65 13.164C1348.87 13.164 1349.86 12.834 1350.62 12.174C1351.37 11.502 1351.75 10.62 1351.75 9.528C1351.75 8.424 1351.37 7.542 1350.62 6.882C1349.86 6.21 1348.87 5.874 1347.65 5.874C1346.42 5.874 1345.43 6.21 1344.68 6.882ZM1356.17 15V3.732H1356.33L1365.71 11.076H1365.74V4.038H1367.9V15.306H1367.74L1358.36 7.998H1358.33V15H1356.17Z" fill="white"/>
<path d="M1394.1 15V3.732H1394.26L1403.64 11.076H1403.67V4.038H1405.83V15.306H1405.67L1396.29 7.998H1396.26V15H1394.1ZM1408.02 15V4.038H1418.82V6H1410.56V8.646H1417.88V10.41H1410.56V13.056H1418.82V15H1408.02ZM1419.6 4.038H1422.14L1424.98 10.428H1425.02L1428.56 3.894H1428.62L1432.15 10.428H1432.18L1435.03 4.038H1437.56L1432.29 15.306H1432.25L1428.62 8.448H1428.56L1424.91 15.306H1424.87L1419.6 4.038ZM1444.41 9.528C1444.41 7.824 1445.01 6.462 1446.21 5.442C1447.41 4.41 1449.08 3.894 1451.22 3.894C1452.33 3.894 1453.38 3.972 1454.37 4.128C1455.36 4.272 1456.11 4.428 1456.6 4.596V6.594C1455.93 6.366 1455.11 6.186 1454.13 6.054C1453.17 5.922 1452.36 5.856 1451.69 5.856C1450.2 5.856 1449.03 6.174 1448.19 6.81C1447.37 7.446 1446.95 8.352 1446.95 9.528C1446.95 10.62 1447.36 11.502 1448.18 12.174C1448.99 12.834 1450.1 13.164 1451.49 13.164C1452.21 13.164 1452.83 13.11 1453.34 13.002C1453.87 12.894 1454.45 12.684 1455.07 12.372V10.554H1451.49V8.862H1457.1V13.434C1456.07 14.106 1455.17 14.562 1454.4 14.802C1453.65 15.042 1452.68 15.162 1451.49 15.162C1449.34 15.162 1447.62 14.646 1446.34 13.614C1445.06 12.57 1444.41 11.208 1444.41 9.528ZM1458.86 15V4.038H1469.66V6H1461.39V8.646H1468.72V10.41H1461.39V13.056H1469.66V15H1458.86ZM1471.32 15V3.732H1471.48L1480.86 11.076H1480.89V4.038H1483.05V15.306H1482.89L1473.51 7.998H1473.48V15H1471.32ZM1485.24 15V4.038H1496.04V6H1487.78V8.646H1495.1V10.41H1487.78V13.056H1496.04V15H1485.24ZM1500.21 9.456C1500.36 9.456 1501.09 9.462 1502.38 9.474C1503.69 9.486 1504.67 9.492 1505.32 9.492C1506.01 9.492 1506.6 9.318 1507.06 8.97C1507.53 8.61 1507.77 8.202 1507.77 7.746C1507.77 7.266 1507.51 6.846 1506.99 6.486C1506.49 6.114 1505.83 5.928 1505.03 5.928C1504.35 5.928 1503.46 5.946 1502.37 5.982C1501.27 6.006 1500.55 6.018 1500.21 6.018V9.456ZM1497.7 15V4.038C1498.6 4.038 1499.79 4.026 1501.25 4.002C1502.73 3.966 1503.94 3.948 1504.9 3.948C1506.45 3.948 1507.74 4.302 1508.77 5.01C1509.82 5.718 1510.34 6.594 1510.34 7.638C1510.34 8.634 1509.86 9.486 1508.9 10.194C1508.24 10.674 1507.49 10.986 1506.65 11.13L1510.25 15H1506.9L1504.04 11.238H1500.21V15H1497.7ZM1511.15 15L1518.04 3.732H1518.11L1525.01 15H1522.47L1521.3 13.092H1514.8L1513.63 15H1511.15ZM1515.86 11.364H1520.24L1518.06 7.782L1515.86 11.364ZM1522.94 5.964V4.038H1534.21V5.964H1529.89V15H1527.26V5.964H1522.94ZM1535.62 15V4.038H1538.16V15H1535.62ZM1541.77 13.614C1540.53 12.57 1539.92 11.208 1539.92 9.528C1539.92 7.848 1540.53 6.492 1541.77 5.46C1543.01 4.416 1544.63 3.894 1546.65 3.894C1548.66 3.894 1550.29 4.416 1551.53 5.46C1552.76 6.492 1553.38 7.848 1553.38 9.528C1553.38 11.208 1552.76 12.57 1551.53 13.614C1550.29 14.646 1548.66 15.162 1546.65 15.162C1544.63 15.162 1543.01 14.646 1541.77 13.614ZM1543.68 6.882C1542.93 7.542 1542.56 8.424 1542.56 9.528C1542.56 10.62 1542.93 11.502 1543.68 12.174C1544.43 12.834 1545.42 13.164 1546.65 13.164C1547.87 13.164 1548.86 12.834 1549.62 12.174C1550.37 11.502 1550.75 10.62 1550.75 9.528C1550.75 8.424 1550.37 7.542 1549.62 6.882C1548.86 6.21 1547.87 5.874 1546.65 5.874C1545.42 5.874 1544.43 6.21 1543.68 6.882ZM1555.17 15V3.732H1555.33L1564.71 11.076H1564.74V4.038H1566.9V15.306H1566.74L1557.36 7.998H1557.33V15H1555.17Z" fill="white"/>
<path d="M1593.1 15V3.732H1593.26L1602.64 11.076H1602.67V4.038H1604.83V15.306H1604.67L1595.29 7.998H1595.26V15H1593.1ZM1607.02 15V4.038H1617.82V6H1609.56V8.646H1616.88V10.41H1609.56V13.056H1617.82V15H1607.02ZM1618.6 4.038H1621.14L1623.98 10.428H1624.02L1627.56 3.894H1627.62L1631.15 10.428H1631.18L1634.03 4.038H1636.56L1631.29 15.306H1631.25L1627.62 8.448H1627.56L1623.91 15.306H1623.87L1618.6 4.038ZM1643.41 9.528C1643.41 7.824 1644.01 6.462 1645.21 5.442C1646.41 4.41 1648.08 3.894 1650.22 3.894C1651.33 3.894 1652.38 3.972 1653.37 4.128C1654.36 4.272 1655.11 4.428 1655.6 4.596V6.594C1654.93 6.366 1654.11 6.186 1653.13 6.054C1652.17 5.922 1651.36 5.856 1650.69 5.856C1649.2 5.856 1648.03 6.174 1647.19 6.81C1646.37 7.446 1645.95 8.352 1645.95 9.528C1645.95 10.62 1646.36 11.502 1647.18 12.174C1647.99 12.834 1649.1 13.164 1650.49 13.164C1651.21 13.164 1651.83 13.11 1652.34 13.002C1652.87 12.894 1653.45 12.684 1654.07 12.372V10.554H1650.49V8.862H1656.1V13.434C1655.07 14.106 1654.17 14.562 1653.4 14.802C1652.65 15.042 1651.68 15.162 1650.49 15.162C1648.34 15.162 1646.62 14.646 1645.34 13.614C1644.06 12.57 1643.41 11.208 1643.41 9.528ZM1657.86 15V4.038H1668.66V6H1660.39V8.646H1667.72V10.41H1660.39V13.056H1668.66V15H1657.86ZM1670.32 15V3.732H1670.48L1679.86 11.076H1679.89V4.038H1682.05V15.306H1681.89L1672.51 7.998H1672.48V15H1670.32ZM1684.24 15V4.038H1695.04V6H1686.78V8.646H1694.1V10.41H1686.78V13.056H1695.04V15H1684.24ZM1699.21 9.456C1699.36 9.456 1700.09 9.462 1701.38 9.474C1702.69 9.486 1703.67 9.492 1704.32 9.492C1705.01 9.492 1705.6 9.318 1706.06 8.97C1706.53 8.61 1706.77 8.202 1706.77 7.746C1706.77 7.266 1706.51 6.846 1705.99 6.486C1705.49 6.114 1704.83 5.928 1704.03 5.928C1703.35 5.928 1702.46 5.946 1701.37 5.982C1700.27 6.006 1699.55 6.018 1699.21 6.018V9.456ZM1696.7 15V4.038C1697.6 4.038 1698.79 4.026 1700.25 4.002C1701.73 3.966 1702.94 3.948 1703.9 3.948C1705.45 3.948 1706.74 4.302 1707.77 5.01C1708.82 5.718 1709.34 6.594 1709.34 7.638C1709.34 8.634 1708.86 9.486 1707.9 10.194C1707.24 10.674 1706.49 10.986 1705.65 11.13L1709.25 15H1705.9L1703.04 11.238H1699.21V15H1696.7ZM1710.15 15L1717.04 3.732H1717.11L1724.01 15H1721.47L1720.3 13.092H1713.8L1712.63 15H1710.15ZM1714.86 11.364H1719.24L1717.06 7.782L1714.86 11.364ZM1721.94 5.964V4.038H1733.21V5.964H1728.89V15H1726.26V5.964H1721.94ZM1734.62 15V4.038H1737.16V15H1734.62ZM1740.77 13.614C1739.53 12.57 1738.92 11.208 1738.92 9.528C1738.92 7.848 1739.53 6.492 1740.77 5.46C1742.01 4.416 1743.63 3.894 1745.65 3.894C1747.66 3.894 1749.29 4.416 1750.53 5.46C1751.76 6.492 1752.38 7.848 1752.38 9.528C1752.38 11.208 1751.76 12.57 1750.53 13.614C1749.29 14.646 1747.66 15.162 1745.65 15.162C1743.63 15.162 1742.01 14.646 1740.77 13.614ZM1742.68 6.882C1741.93 7.542 1741.56 8.424 1741.56 9.528C1741.56 10.62 1741.93 11.502 1742.68 12.174C1743.43 12.834 1744.42 13.164 1745.65 13.164C1746.87 13.164 1747.86 12.834 1748.62 12.174C1749.37 11.502 1749.75 10.62 1749.75 9.528C1749.75 8.424 1749.37 7.542 1748.62 6.882C1747.86 6.21 1746.87 5.874 1745.65 5.874C1744.42 5.874 1743.43 6.21 1742.68 6.882ZM1754.17 15V3.732H1754.33L1763.71 11.076H1763.74V4.038H1765.9V15.306H1765.74L1756.36 7.998H1756.33V15H1754.17Z" fill="white"/>
<path d="M1792.1 15V3.732H1792.26L1801.64 11.076H1801.67V4.038H1803.83V15.306H1803.67L1794.29 7.998H1794.26V15H1792.1ZM1806.02 15V4.038H1816.82V6H1808.56V8.646H1815.88V10.41H1808.56V13.056H1816.82V15H1806.02ZM1817.6 4.038H1820.14L1822.98 10.428H1823.02L1826.56 3.894H1826.62L1830.15 10.428H1830.18L1833.03 4.038H1835.56L1830.29 15.306H1830.25L1826.62 8.448H1826.56L1822.91 15.306H1822.87L1817.6 4.038ZM1842.41 9.528C1842.41 7.824 1843.01 6.462 1844.21 5.442C1845.41 4.41 1847.08 3.894 1849.22 3.894C1850.33 3.894 1851.38 3.972 1852.37 4.128C1853.36 4.272 1854.11 4.428 1854.6 4.596V6.594C1853.93 6.366 1853.11 6.186 1852.13 6.054C1851.17 5.922 1850.36 5.856 1849.69 5.856C1848.2 5.856 1847.03 6.174 1846.19 6.81C1845.37 7.446 1844.95 8.352 1844.95 9.528C1844.95 10.62 1845.36 11.502 1846.18 12.174C1846.99 12.834 1848.1 13.164 1849.49 13.164C1850.21 13.164 1850.83 13.11 1851.34 13.002C1851.87 12.894 1852.45 12.684 1853.07 12.372V10.554H1849.49V8.862H1855.1V13.434C1854.07 14.106 1853.17 14.562 1852.4 14.802C1851.65 15.042 1850.68 15.162 1849.49 15.162C1847.34 15.162 1845.62 14.646 1844.34 13.614C1843.06 12.57 1842.41 11.208 1842.41 9.528ZM1856.86 15V4.038H1867.66V6H1859.39V8.646H1866.72V10.41H1859.39V13.056H1867.66V15H1856.86ZM1869.32 15V3.732H1869.48L1878.86 11.076H1878.89V4.038H1881.05V15.306H1880.89L1871.51 7.998H1871.48V15H1869.32ZM1883.24 15V4.038H1894.04V6H1885.78V8.646H1893.1V10.41H1885.78V13.056H1894.04V15H1883.24ZM1898.21 9.456C1898.36 9.456 1899.09 9.462 1900.38 9.474C1901.69 9.486 1902.67 9.492 1903.32 9.492C1904.01 9.492 1904.6 9.318 1905.06 8.97C1905.53 8.61 1905.77 8.202 1905.77 7.746C1905.77 7.266 1905.51 6.846 1904.99 6.486C1904.49 6.114 1903.83 5.928 1903.03 5.928C1902.35 5.928 1901.46 5.946 1900.37 5.982C1899.27 6.006 1898.55 6.018 1898.21 6.018V9.456ZM1895.7 15V4.038C1896.6 4.038 1897.79 4.026 1899.25 4.002C1900.73 3.966 1901.94 3.948 1902.9 3.948C1904.45 3.948 1905.74 4.302 1906.77 5.01C1907.82 5.718 1908.34 6.594 1908.34 7.638C1908.34 8.634 1907.86 9.486 1906.9 10.194C1906.24 10.674 1905.49 10.986 1904.65 11.13L1908.25 15H1904.9L1902.04 11.238H1898.21V15H1895.7ZM1909.15 15L1916.04 3.732H1916.11L1923.01 15H1920.47L1919.3 13.092H1912.8L1911.63 15H1909.15ZM1913.86 11.364H1918.24L1916.06 7.782L1913.86 11.364ZM1920.94 5.964V4.038H1932.21V5.964H1927.89V15H1925.26V5.964H1920.94ZM1933.62 15V4.038H1936.16V15H1933.62ZM1939.77 13.614C1938.53 12.57 1937.92 11.208 1937.92 9.528C1937.92 7.848 1938.53 6.492 1939.77 5.46C1941.01 4.416 1942.63 3.894 1944.65 3.894C1946.66 3.894 1948.29 4.416 1949.53 5.46C1950.76 6.492 1951.38 7.848 1951.38 9.528C1951.38 11.208 1950.76 12.57 1949.53 13.614C1948.29 14.646 1946.66 15.162 1944.65 15.162C1942.63 15.162 1941.01 14.646 1939.77 13.614ZM1941.68 6.882C1940.93 7.542 1940.56 8.424 1940.56 9.528C1940.56 10.62 1940.93 11.502 1941.68 12.174C1942.43 12.834 1943.42 13.164 1944.65 13.164C1945.87 13.164 1946.86 12.834 1947.62 12.174C1948.37 11.502 1948.75 10.62 1948.75 9.528C1948.75 8.424 1948.37 7.542 1947.62 6.882C1946.86 6.21 1945.87 5.874 1944.65 5.874C1943.42 5.874 1942.43 6.21 1941.68 6.882ZM1953.17 15V3.732H1953.33L1962.71 11.076H1962.74V4.038H1964.9V15.306H1964.74L1955.36 7.998H1955.33V15H1953.17Z" fill="white"/>
</svg>
