<svg width="60" height="59" viewBox="0 0 60 59" fill="none" xmlns="http://www.w3.org/2000/svg">
<path d="M58.2642 25.7212L26.1782 57.8072L25.8455 48.8618L53.6251 21.0821L58.2642 25.7212Z" fill="#FFD400" stroke="#FDBF00"/>
<path d="M51.5815 19.0385L25.7763 44.8438L25.7948 38.2201L48.279 15.736L51.5815 19.0385Z" stroke="#FDBF00"/>
<path d="M46.2354 13.6924L25.9439 33.9838L25.8365 28.8227L43.6011 11.0581L46.2354 13.6924Z" fill="#FFD400" stroke="#FDBF00"/>
<path d="M41.5574 9.01442L26.7663 23.8055L26.5493 20.0906L39.5914 7.04844L41.5574 9.01442Z" stroke="#FDBF00"/>
<path d="M37.5478 5.00464L26.9054 15.647L26.7454 13.2116L36.2501 3.70693L37.5478 5.00464Z" stroke="#FDBF00"/>
<path d="M34.24 1.44708L26.8737 8.81332L26.7825 7.42464L33.5 0.707123L34.24 1.44708Z" stroke="#FDBF00"/>
</svg>
