<svg width="321" height="143" viewBox="0 0 321 143" fill="none" xmlns="http://www.w3.org/2000/svg">
<path d="M0.079834 138.789V0.294708H2.06373L116.91 90.5591H117.351V4.05574H143.803V142.55H141.819L26.9728 52.7277H26.532V138.789H0.079834ZM165.502 71.5328C165.502 50.5892 172.85 33.8488 187.545 21.3122C202.241 8.62781 222.667 2.28583 248.828 2.28583C262.495 2.28583 275.351 3.24467 287.404 5.16192C299.599 6.93181 308.712 8.84906 314.738 10.9141V35.4713C306.507 32.6691 296.442 30.4567 284.539 28.8342C272.781 27.2117 262.786 26.4006 254.559 26.4006C236.334 26.4006 222.081 30.309 211.793 38.1261C201.653 45.9433 196.583 57.0786 196.583 71.5328C196.583 84.9532 201.58 95.7937 211.573 104.055C221.565 112.165 235.086 116.223 252.135 116.223C260.952 116.223 268.518 115.559 274.839 114.231C281.303 112.904 288.357 110.324 296.001 106.488V84.1433H252.135V63.3471H320.91V119.541C308.271 127.802 297.249 133.404 287.845 136.355C278.587 139.306 266.683 140.78 252.135 140.78C225.828 140.78 204.813 134.439 189.089 121.753C173.364 108.922 165.502 92.1828 165.502 71.5328Z" fill="white"/>
</svg>
